# xmcd
#
# Track frame offsets:
#	150
#	13650
#	31245
#	51807
#	64740
#	78316
#	90517
#	107752
#	128577
#	148720
#	166012
#	210075
#	230530
#	245604
#
# Disc length: 3699 seconds
#
# Revision: 7
# Processed by: cddbd v1.5.2PL0 Copyright (c) Steve Scherf et al.
# Submitted via: audiograbber 1.83.01
#
DISCID=a90e710e
DTITLE=Various Artist - AUDIO 2017-12 - AUDIOphile Pearls Volume 23 [Yamaha]
DYEAR=2017
DGENRE=Audiophile
TTITLE0=Slow Leaves - Careless And Serene
TTITLE1=Mavis Staples - If All I Was Was Black
TTITLE2=Project Mama Earth featuring Joss Stone - Mama Earth
TTITLE3=Eilen Jewell - Another Night To Cry
TTITLE4=Randi Tytingvåg Trio - Yes, But No ....
TTITLE5=Sweet Alibi - Pick Up Truck
TTITLE6=B.B. Leon and Triple Treat - I Ain't Rude
TTITLE7=Lee Ann Womack - He Called Me Baby
TTITLE8=Chris Dahlgren - Lay Low
TTITLE9=The White Buffalo - The Observatory
TTITLE10=Felix Mendelssohn Bartholdy - Konzert für Violine, Klavier und Streich
TTITLE10=er d-Moll, 3. Satz Allegro molto [Sabine Weyer - Klavier, Olga Pak - V
TTITLE10=ioline, Berliner Camerata]
TTITLE11=Ludwig van Beethoven - Bagatelle op. 126 Nr. 6 Presto-Andante amabile 
TTITLE11=e con moto [Evgeni Koroliov]
TTITLE12=Giacomo Meyerbeer - L'Africaine, Acte IV "Pays merveilleux! .... O par
TTITLE12=adis" [Jonas Kaufmann - Tenor, Bayerisches Staatsorchester - Bertrand 
TTITLE12=de Billy]
TTITLE13=Georges Bizet - Premier Nocturne op. 2 [Johann Blanchard]
EXTD=
EXTT0=
EXTT1=
EXTT2=
EXTT3=
EXTT4=
EXTT5=
EXTT6=
EXTT7=
EXTT8=
EXTT9=
EXTT10=
EXTT11=
EXTT12=
EXTT13=
PLAYORDER=
